<?xml version="1.0" standalone="no"?>
<!DOCTYPE svg PUBLIC "-//W3C//DTD SVG 20010904//EN"
 "http://www.w3.org/TR/2001/REC-SVG-20010904/DTD/svg10.dtd">
<svg version="1.0" xmlns="http://www.w3.org/2000/svg"
 width="752.000000pt" height="245.000000pt" viewBox="0 0 752.000000 245.000000"
 preserveAspectRatio="xMidYMid meet">
<g transform="translate(0.000000,245.000000) scale(0.100000,-0.100000)"
fill="#000000" stroke="none">
<path d="M0 1225 l0 -1225 3760 0 3760 0 0 1225 0 1225 -3760 0 -3760 0 0
-1225z m7300 924 c21 -12 48 -40 61 -63 l24 -41 0 -856 0 -855 -28 -43 c-19
-28 -43 -49 -72 -62 -42 -19 -81 -19 -1522 -17 -1442 3 -1479 3 -1509 22 -17
11 -42 35 -55 55 l-24 35 -3 844 c-1 550 1 857 8 882 13 48 45 89 84 106 26
11 295 13 1515 14 l1483 0 38 -21z m-6478 -270 c119 -25 244 -109 306 -206 17
-26 43 -84 58 -128 26 -73 28 -92 29 -230 0 -176 -19 -254 -87 -362 -47 -74
-49 -70 62 -125 36 -17 66 -33 68 -34 8 -5 -80 -164 -91 -164 -21 0 -109 46
-176 92 l-64 44 -56 -19 c-72 -25 -225 -33 -320 -17 -202 34 -361 184 -405
382 -34 150 -27 331 16 448 60 159 188 276 346 314 70 17 242 20 314 5z m1281
-32 c96 -47 173 -128 210 -218 14 -35 22 -67 19 -70 -7 -7 -197 -49 -219 -49
-6 0 -14 14 -18 31 -9 40 -68 105 -119 131 -29 15 -60 21 -107 21 -121 0 -219
-77 -256 -201 -25 -85 -23 -295 5 -380 38 -119 112 -180 226 -189 121 -10 213
57 253 184 19 62 11 61 155 15 98 -32 98 -33 41 -151 -80 -167 -222 -251 -426
-251 -229 0 -411 134 -484 355 -23 71 -26 96 -27 220 0 206 41 330 146 441
113 119 208 155 399 151 123 -3 128 -4 202 -40z m767 16 c4 -4 44 -150 89
-323 45 -173 89 -340 98 -370 l16 -55 17 65 c10 36 52 198 94 360 42 162 79
303 82 313 5 15 22 17 180 17 l174 0 0 -565 0 -565 -110 0 -110 0 0 422 c0
232 -3 418 -6 415 -4 -4 -53 -192 -108 -419 l-102 -413 -114 0 -113 0 -101
412 c-55 227 -101 411 -102 410 -5 -5 -13 -375 -14 -589 l0 -238 -110 0 -110
0 0 564 c0 366 4 566 10 568 20 7 334 -2 340 -9z"/>
<path d="M4443 1308 l2 -573 112 -3 111 -3 4 273 c3 249 5 276 23 313 38 75
126 110 201 80 69 -27 68 -26 74 -360 l5 -300 113 -3 113 -3 -3 328 c-3 321
-4 329 -27 381 -76 169 -297 202 -463 70 l-38 -30 0 201 0 201 -115 0 -115 0
3 -572z"/>
<path d="M6360 1305 l0 -576 103 3 102 3 3 48 3 48 41 -36 c71 -60 123 -80
208 -79 209 1 341 175 341 449 0 165 -51 288 -148 359 -124 90 -284 86 -400
-10 l-33 -27 0 197 0 196 -110 0 -110 0 0 -575z m443 94 c82 -23 127 -110 127
-249 0 -137 -46 -226 -130 -250 -45 -13 -106 4 -144 38 -91 85 -103 320 -20
411 48 54 100 69 167 50z"/>
<path d="M5400 1283 c0 -326 8 -392 54 -461 89 -134 309 -145 448 -23 20 17
37 31 39 31 2 0 4 -21 4 -47 l0 -48 105 0 105 0 0 415 0 415 -112 3 -113 3 0
-248 c0 -258 -7 -317 -41 -365 -55 -77 -181 -85 -231 -15 -23 31 -23 38 -26
330 l-3 297 -115 0 -114 0 0 -287z"/>
<path d="M613 1690 c-54 -11 -110 -41 -152 -81 -94 -90 -124 -296 -70 -483 37
-125 146 -206 278 -206 73 0 84 15 31 39 -25 11 -50 21 -57 21 -6 0 -14 4 -18
10 -8 13 52 130 68 130 17 0 133 -56 170 -82 l30 -21 18 22 c10 12 28 48 41
79 20 50 22 74 22 192 0 155 -17 215 -79 288 -62 72 -184 112 -282 92z"/>
</g>
</svg>
